Coordinates
version=1
nRows=24
nColumns=24
inDegrees=yes

Units are S.I. units (second, meters, Newtons, ...)
Angles are in degrees.

endheader
time	pelvis_tilt	pelvis_list	pelvis_rotation	pelvis_tx	pelvis_ty	pelvis_tz	hip_flexion_r	hip_adduction_r	hip_rotation_r	knee_angle_r	ankle_angle_r	subtalar_angle_r	mtp_angle_r	hip_flexion_l	hip_adduction_l	hip_rotation_l	knee_angle_l	ankle_angle_l	subtalar_angle_l	mtp_angle_l	lumbar_extension	lumbar_bending	lumbar_rotation
      1.66066667	      1.33625610	     11.47694706	     -6.65268621	      1.37671962	      1.00042001	      0.28721192	     11.93976242	    -15.68802609	      2.55581666	    -69.97800768	     -2.74415038	    -10.20650194	      2.67301264	     10.12724008	     16.92676452	      5.73494304	    -17.20890214	      3.98474188	    -20.03326508	     -6.39221571	    -12.08886423	     -8.01062028	      1.91347884
      1.66483333	      1.39007205	     11.28064424	     -6.46442960	      1.38163923	      1.00160225	      0.28671631	     12.39491769	    -15.43240951	      2.40594020	    -69.71542648	     -1.92013693	    -10.00915523	      2.48667458	      9.42460234	     16.80184295	      6.14488936	    -16.68793761	      3.98949922	    -20.07607140	     -6.36514301	    -12.16125568	     -7.70026457	      1.38830913
      1.66900000	      1.44437727	     11.07104368	     -6.27760249	      1.38654664	      1.00274376	      0.28623562	     12.84289021	    -15.15406942	      2.26310906	    -69.41329659	     -1.13164575	     -9.90221651	      2.29046408	      8.73566932	     16.65446519	      6.53810010	    -16.19206278	      3.97048685	    -20.12809253	     -6.33582932	    -12.26102679	     -7.37388692	      0.97099675
      1.67316667	      1.45932794	     10.88337886	     -6.09043437	      1.39138368	      1.00376722	      0.28575824	     13.34546958	    -14.89441148	      2.12667740	    -69.09501606	     -0.27685885	     -9.77310508	     -1.36926646	      8.10094466	     16.51846364	      6.91913630	    -15.69470736	      3.87857993	    -20.22401044	     -5.85337164	    -12.32379652	     -7.07129920	      0.59977683
      1.67733333	      1.47819916	     10.67284263	     -5.88597096	      1.39626279	      1.00477157	      0.28527728	     13.81097401	    -14.61408814	      1.97138255	    -68.70390209	      0.49069966	     -9.61284513	     -1.36428668	      7.46324262	     16.34969148	      7.27856971	    -15.22243846	      3.92980938	    -20.18867562	     -5.84984660	    -12.37162699	     -6.75063018	      0.23585105
      1.68150000	      1.51777985	     10.47041941	     -5.68961070	      1.40115914	      1.00578821	      0.28481032	     14.24689351	    -14.34755680	      1.81370318	    -68.26187846	      1.23113787	     -9.50084762	     -1.37243137	      6.79646910	     16.18580983	      7.64346442	    -14.72564642	      3.91705178	    -20.19648453	     -5.84784238	    -12.45144157	     -6.43516268	     -0.15769419
      1.68566667	      1.53749239	     10.28144340	     -5.48228966	      1.40599045	      1.00670323	      0.28434411	     14.70394164	    -14.09523072	      1.65069025	    -67.79409455	      1.93233993	     -9.42357981	     -1.39677313	      6.15720808	     16.02796636	      8.01406426	    -14.22749883	      3.86956347	    -20.22865298	     -5.84295368	    -12.51259402	     -6.13676792	     -0.58747289
      1.68983333	      1.54900885	     10.09442340	     -5.28675039	      1.41084781	      1.00755857	      0.28389855	     15.16320320	    -13.84114185	      1.50471618	    -67.28282185	      2.63997853	     -9.31503515	     -1.43056146	      5.53661797	     15.86445127	      8.35953743	    -13.74991619	      3.86293261	    -20.23421447	     -5.83511373	    -12.55896482	     -5.84697120	     -0.93794689
      1.69400000	      1.58714902	      9.90414319	     -5.08896321	      1.41570340	      1.00841683	      0.28345702	     15.58287153	    -13.59015720	      1.34737484	    -66.72548218	      3.26587445	     -9.21987221	     -1.46329276	      4.88141951	     15.69174028	      8.69872361	    -13.24825312	      3.87188260	    -20.22216056	     -5.82354569	    -12.62831139	     -5.54476179	     -1.27839958
      1.69816667	      1.58648348	      9.70481803	     -4.88658484	      1.42050843	      1.00917685	      0.28305018	     16.03399888	    -13.31099382	      1.21178700	    -66.12649167	      3.89879708	     -9.14880007	     -1.48658757	      4.29368035	     15.49869984	      9.01859487	    -12.79915795	      3.88001664	    -20.17932728	     -5.81286044	    -12.67972822	     -5.26713521	     -1.56332161
      1.70233333	      1.62269598	      9.56045357	     -4.69621583	      1.42536964	      1.00990656	      0.28262411	     16.45041854	    -13.11842578	      1.06201477	    -65.50590583	      4.50655494	     -9.06569219	     -1.52855497	      3.63522021	     15.36244146	      9.34324781	    -12.26788316	      3.85459445	    -20.18661255	     -5.79697357	    -12.72399521	     -4.99504642	     -1.98511816
      1.70650000	      1.64116079	      9.38418043	     -4.50217725	      1.43021273	      1.01058572	      0.28224168	     16.86656721	    -12.87230575	      0.92627998	    -64.83423736	      5.04728060	     -9.03443722	     -1.56957305	      3.01794896	     15.18215548	      9.64379839	    -11.78196321	      3.84777667	    -20.16414096	     -5.77878574	    -12.77145729	     -4.72678598	     -2.30636132
      1.71066667	      1.63324616	      9.23650474	     -4.30781277	      1.43503258	      1.01116301	      0.28187114	     17.31419926	    -12.65712664	      0.79866241	    -64.13835632	      5.60369949	     -9.01833685	     -1.63341687	      2.43538954	     15.02584604	      9.94337330	    -11.29933572	      3.79763319	    -20.16568709	     -5.75294828	    -12.78579195	     -4.48975907	     -2.67509158
      1.71483333	      1.64152393	      9.06012800	     -4.12088231	      1.43987524	      1.01173481	      0.28153899	     17.72243177	    -12.40382146	      0.67937549	    -63.39179586	      6.09911708	     -9.01333275	     -1.65656249	      1.85064879	     14.83090100	     10.18106196	    -10.85071962	      3.82030781	    -20.07577286	     -5.73833915	    -12.82762986	     -4.23774036	     -2.85787703
      1.71900000	      1.68181226	      8.93075020	     -3.95162954	      1.44467793	      1.01225550	      0.28121223	     18.11170725	    -12.21118169	      0.57697058	    -62.63192961	      6.53980995	     -9.00044413	     -1.70943171	      1.20931510	     14.68683154	     10.47967458	    -10.33387307	      3.81266376	    -20.06889156	     -5.71109726	    -12.88873136	     -4.00718319	     -3.27427795
      1.72316667	      1.66914282	      8.77097817	     -3.76245930	      1.44950780	      1.01269159	      0.28092302	     18.52397580	    -11.96975248	      0.47337529	    -61.81875131	      6.98995955	     -9.03573679	     -1.73540932	      0.65585932	     14.49688762	     10.69985011	     -9.89251478	      3.80507088	    -19.98742128	     -5.69423333	    -12.90046189	     -3.78825407	     -3.46730016
      1.72733333	      1.71252755	      8.64872374	     -3.59311135	      1.45431422	      1.01312448	      0.28062634	     18.88671390	    -11.78402430	      0.37850193	    -60.98872310	      7.35808734	     -9.06328654	     -1.78612873	      0.01985805	     14.35030822	     10.98534175	     -9.38462343	      3.79979244	    -19.98491166	     -5.66380611	    -12.96154881	     -3.56256335	     -3.86992207
      1.73150000	      1.73209001	      8.54071091	     -3.42464259	      1.45913695	      1.01346018	      0.28035789	     19.26918331	    -11.60857647	      0.29660145	    -60.13559863	      7.73161853	     -9.10687743	     -1.84544478	     -0.57935003	     14.21283261	     11.25511996	     -8.90147940	      3.76002080	    -19.97824327	     -5.62875447	    -13.00492989	     -3.37862907	     -4.18062514
      1.73566667	      1.70401004	      8.41151107	     -3.24681532	      1.46391276	      1.01369027	      0.28011596	     19.69115323	    -11.39668121	      0.22796726	    -59.24570026	      8.07273355	     -9.16986939	     -1.87291591	     -1.09024981	     14.04364749	     11.45222334	     -8.48437732	      3.76134515	    -19.89671349	     -5.60830824	    -13.00532242	     -3.19735204	     -4.35166225
      1.73983333	      1.74575286	      8.29834009	     -3.09770507	      1.46873588	      1.01397554	      0.27989890	     20.02257712	    -11.21344658	      0.16267090	    -58.31309837	      8.33725125	     -9.25342769	     -1.92793546	     -1.71341069	     13.89258163	     11.70472343	     -7.99205314	      3.76082583	    -19.89037962	     -5.57201719	    -13.06351501	     -2.99159882	     -4.70522171
      1.74400000	      1.75443688	      8.19732636	     -2.93222761	      1.47352957	      1.01414542	      0.27969428	     20.38769715	    -11.03968945	      0.10475946	    -57.36631803	      8.58391773	     -9.34335619	     -1.97875383	     -2.27438423	     13.74844067	     11.94310084	     -7.54634036	      3.75372204	    -19.86487513	     -5.53509409	    -13.09082660	     -2.82418510	     -4.98038887
      1.74816667	      1.73754750	      8.08997895	     -2.78209516	      1.47830806	      1.01424724	      0.27951704	     20.76828692	    -10.85121046	      0.06809078	    -56.37875773	      8.80694022	     -9.43635953	     -2.02864638	     -2.80188345	     13.59333259	     12.15086684	     -7.10519454	      3.75119965	    -19.82738469	     -5.49851446	    -13.09852454	     -2.64885116	     -5.22316851
      1.75233333	      1.71256651	      7.99186222	     -2.61149893	      1.48308532	      1.01428122	      0.27933226	     21.14143942	    -10.68099807	      0.01890853	    -55.36578545	      9.02870973	     -9.51623023	     -2.05758769	     -3.29781393	     13.44526507	     12.34876124	     -6.71702240	      3.76891368	    -19.74321294	     -5.47449193	    -13.09956502	     -2.49761375	     -5.40971621
      1.75650000	      1.69914511	      7.89855295	     -2.46595131	      1.48787921	      1.01429606	      0.27918752	     21.49466726	    -10.51351631	     -0.01365054	    -54.31560622	      9.16569623	     -9.63264222	     -2.08964281	     -3.81495907	     13.29972909	     12.54932438	     -6.29968012	      3.78938111	    -19.68836511	     -5.44840503	    -13.10439904	     -2.33909097	     -5.65003957
